<svg xmlns="http://www.w3.org/2000/svg" viewBox="0 0 48 45"><defs><style>.cls-1{fill:#415560;}</style></defs><title>Asset 7</title><g id="Layer_2" data-name="Layer 2"><g id="Layer_1-2" data-name="Layer 1"><path class="cls-1" d="M48,0H0V13H2V45H46V13h2ZM44,43H4V13H44Zm2-32H2V2H46Z"/><path class="cls-1" d="M16.77,26H31.28A3.69,3.69,0,0,0,35,22.37v-.72A3.69,3.69,0,0,0,31.28,18H16.77A3.69,3.69,0,0,0,13,21.65v.72A3.69,3.69,0,0,0,16.77,26ZM15,21.65A1.69,1.69,0,0,1,16.77,20H31.28A1.69,1.69,0,0,1,33,21.65v.72A1.69,1.69,0,0,1,31.28,24H16.77A1.69,1.69,0,0,1,15,22.37Z"/></g></g></svg>