<svg xmlns="http://www.w3.org/2000/svg" viewBox="0 0 50.01 46.01"><defs><style>.cls-1{fill:#415560;}</style></defs><title>Asset 5</title><g id="Layer_2" data-name="Layer 2"><g id="Layer_1-2" data-name="Layer 1"><path class="cls-1" d="M46,0H28a4,4,0,0,0-3,1.38A4,4,0,0,0,22,0H4A4,4,0,0,0,0,4V38a4,4,0,0,0,4,4H22.06A2,2,0,0,1,24,44V46h2V44.9h0V44A2,2,0,0,1,28,42H46a4,4,0,0,0,4-4V4A4,4,0,0,0,46,0ZM2,38V4A2,2,0,0,1,4,2H22a2,2,0,0,1,2,2V38a2,2,0,0,1-2,2H4A2,2,0,0,1,2,38Zm46,0a2,2,0,0,1-2,2H28a2,2,0,0,1-2-2V4a2,2,0,0,1,2-2H46a2,2,0,0,1,2,2Z"/></g></g></svg>