<svg xmlns="http://www.w3.org/2000/svg" viewBox="0 0 50 38"><defs><style>.cls-1{fill:#415560;}</style></defs><title>Asset 28</title><g id="Layer_2" data-name="Layer 2"><g id="Layer_1-2" data-name="Layer 1"><path class="cls-1" d="M46,6H37.73L32.92,1.18l0,0h0A4,4,0,0,0,30.08,0h-10a4,4,0,0,0-2.93,1.29h0L12.44,6H4a4,4,0,0,0-4,4V34a4,4,0,0,0,4,4H46a4,4,0,0,0,4-4V10A4,4,0,0,0,46,6Zm2,28a2,2,0,0,1-2,2H4a2,2,0,0,1-2-2V10A2,2,0,0,1,4,8h9.27l.59-.59L16.28,5l0,.15,2.3-2.48A2,2,0,0,1,20.08,2h10a2,2,0,0,1,1.42.59l4.81,4.82L36.9,8H46a2,2,0,0,1,2,2Z"/><path class="cls-1" d="M25,8A13,13,0,1,0,38,21,13,13,0,0,0,25,8Zm0,24A11,11,0,1,1,36,21,11,11,0,0,1,25,32Z"/><path class="cls-1" d="M25,12a9,9,0,1,0,9,9A9,9,0,0,0,25,12Zm0,16a7,7,0,1,1,7-7A7,7,0,0,1,25,28Z"/></g></g></svg>