<svg xmlns="http://www.w3.org/2000/svg" viewBox="0 0 50 50"><defs><style>.cls-1{fill:#415560;}</style></defs><title>Asset 18</title><g id="Layer_2" data-name="Layer 2"><g id="Layer_1-2" data-name="Layer 1"><path class="cls-1" d="M25,6A22,22,0,0,0,8.37,42.41L3.23,48.72,4.77,50l5-6.11a22,22,0,0,0,30.48,0l5,6.15,1.55-1.26-5.15-6.35A22,22,0,0,0,25,6Zm0,42A20,20,0,1,1,45,28,20,20,0,0,1,25,48Z"/><path class="cls-1" d="M15.94,0H10A10,10,0,0,0,0,10v6H2.84L15.94,2.85Zm-2,2L2,14H2V10a8,8,0,0,1,8-8h3.94Z"/><path class="cls-1" d="M40,0H34.05V2.85L47.15,16H50V10A10,10,0,0,0,40,0Zm8,14h0L36.05,2V2H40a8,8,0,0,1,8,8Z"/><polygon class="cls-1" points="24 28 12.97 28 12.97 30 26 30 26 12 24 12 24 28"/></g></g></svg>