<svg xmlns="http://www.w3.org/2000/svg" viewBox="0 0 59.99 37.97"><defs><style>.cls-1{fill:#415560;}</style></defs><title>Asset 26</title><g id="Layer_2" data-name="Layer 2"><g id="Layer_1-2" data-name="Layer 1"><path class="cls-1" d="M33.55,2A13.51,13.51,0,0,1,47,15.5s0,.08,0,.13,0,.2,0,.3L47,18h2a9,9,0,0,1,0,18H12A10,10,0,0,1,8.76,16.52l1.12-.38.2-1.17a6,6,0,0,1,8.59-4.35l1.82.92.88-1.84A13.57,13.57,0,0,1,33.55,2m0-2a15.49,15.49,0,0,0-14,8.83,8,8,0,0,0-11.46,5.8A12,12,0,0,0,12,38H49a11,11,0,0,0,0-22c0-.16,0-.31,0-.47A15.5,15.5,0,0,0,33.55,0Z"/></g></g></svg>