<svg xmlns="http://www.w3.org/2000/svg" viewBox="0 0 36 44"><defs><style>.cls-1{fill:#415560;}</style></defs><title>Asset 12</title><g id="Layer_2" data-name="Layer 2"><g id="Layer_1-2" data-name="Layer 1"><path class="cls-1" d="M36,.62l-1.33.46a31.31,31.31,0,0,1-9.33,1.25A39.76,39.76,0,0,1,17,1.17,40.2,40.2,0,0,0,8.54,0C2.64,0,.64,1.27.43,1.41L0,1.71V44H2V24.88A18.58,18.58,0,0,1,8.54,24a38.09,38.09,0,0,1,8,1.13,41.25,41.25,0,0,0,8.75,1.2,32.6,32.6,0,0,0,10-1.36l.67-.24ZM34,23.3a33.78,33.78,0,0,1-8.66,1A39.69,39.69,0,0,1,17,23.18,40.2,40.2,0,0,0,8.54,22,23.21,23.21,0,0,0,2,22.76V2.86A18.67,18.67,0,0,1,8.54,2a38.09,38.09,0,0,1,8,1.13,41.32,41.32,0,0,0,8.75,1.2,36.43,36.43,0,0,0,8.66-1Z"/></g></g></svg>