<svg xmlns="http://www.w3.org/2000/svg" viewBox="0 0 50 50"><defs><style>.cls-1{fill:#415560;}</style></defs><title>Asset 17</title><g id="Layer_2" data-name="Layer 2"><g id="Layer_1-2" data-name="Layer 1"><path class="cls-1" d="M25,0h-.06a25,25,0,0,0,0,50H25A25,25,0,0,0,25,0Zm1,15a36.75,36.75,0,0,0,7.71-1A44.69,44.69,0,0,1,35,24H26Zm0-2V2.16c2.7.75,5.43,4.34,7.17,9.85A34.79,34.79,0,0,1,26,13ZM24,2.13V13a34.67,34.67,0,0,1-7.23-1C18.53,6.45,21.29,2.84,24,2.13ZM24,15v9H14.94a44.76,44.76,0,0,1,1.29-10.08A36.8,36.8,0,0,0,24,15ZM12.93,24H2a22.89,22.89,0,0,1,5.2-13.58,36.68,36.68,0,0,0,7.06,3A47.2,47.2,0,0,0,12.93,24Zm0,2a47.19,47.19,0,0,0,1.37,10.6,36.84,36.84,0,0,0-7.06,3A22.89,22.89,0,0,1,2,26Zm2,0H24v9a36.69,36.69,0,0,0-7.77,1A44.71,44.71,0,0,1,14.94,26ZM24,37V47.87c-2.72-.71-5.47-4.32-7.23-9.87A34.7,34.7,0,0,1,24,37Zm2,10.81V37a34.82,34.82,0,0,1,7.17,1C31.43,43.5,28.7,47.1,26,47.84ZM26,35V26h9a44.79,44.79,0,0,1-1.28,10.06A36.67,36.67,0,0,0,26,35Zm11-9H48a22.88,22.88,0,0,1-5.2,13.58,37,37,0,0,0-7.12-3A47.16,47.16,0,0,0,37,26Zm0-2a47.16,47.16,0,0,0-1.36-10.59,36.92,36.92,0,0,0,7.12-3A22.89,22.89,0,0,1,48,24ZM41.39,8.88a34.9,34.9,0,0,1-6.28,2.6,22.44,22.44,0,0,0-4.75-8.85A23,23,0,0,1,41.39,8.88ZM19.57,2.65a22.44,22.44,0,0,0-4.73,8.81A34.82,34.82,0,0,1,8.61,8.88,23,23,0,0,1,19.57,2.65ZM8.6,41.11a34.73,34.73,0,0,1,6.23-2.58,22.45,22.45,0,0,0,4.73,8.82A23,23,0,0,1,8.6,41.11Zm21.75,6.26a22.41,22.41,0,0,0,4.75-8.86,34.8,34.8,0,0,1,6.29,2.6A23,23,0,0,1,30.35,47.36Z"/></g></g></svg>