<svg xmlns="http://www.w3.org/2000/svg" viewBox="0 0 50 50"><defs><style>.cls-1{fill:#415560;}</style></defs><title>Asset 32</title><g id="Layer_2" data-name="Layer 2"><g id="Layer_1-2" data-name="Layer 1"><circle class="cls-1" cx="25.12" cy="12.91" r="3"/><polygon class="cls-1" points="27.16 19.91 27.16 18.86 27.16 17.91 21.16 17.91 21.16 19.91 23.16 19.91 23.16 36.91 21.16 36.91 21.16 38.91 29.16 38.91 29.16 36.91 27.16 36.91 27.16 19.91"/><path class="cls-1" d="M25,0A25,25,0,1,0,50,25,25,25,0,0,0,25,0Zm0,48A23,23,0,1,1,48,25,23,23,0,0,1,25,48Z"/></g></g></svg>