<svg xmlns="http://www.w3.org/2000/svg" viewBox="0 0 59.99 37.97"><defs><style>.cls-1{fill:#415560;}</style></defs><title>Asset 27</title><g id="Layer_2" data-name="Layer 2"><g id="Layer_1-2" data-name="Layer 1"><path class="cls-1" d="M49,16c0-.16,0-.31,0-.47A15.49,15.49,0,0,0,19.57,8.83a8,8,0,0,0-11.46,5.8A12,12,0,0,0,12,38H49a11,11,0,0,0,0-22Zm0,20H12A10,10,0,0,1,8.76,16.52l1.12-.38.2-1.17a6,6,0,0,1,8.59-4.35l1.82.92.88-1.84A13.49,13.49,0,0,1,47,15.5s0,.08,0,.13,0,.2,0,.3L47,18h2a9,9,0,0,1,0,18Z"/><path class="cls-1" d="M30,29a7,7,0,0,1,0-14v3.69l7.53-4.35L30,10v3a9,9,0,1,0,9,9H37A7,7,0,0,1,30,29Z"/></g></g></svg>