<svg xmlns="http://www.w3.org/2000/svg" viewBox="0 0 46 50"><defs><style>.cls-1{fill:#415560;}</style></defs><title>Asset 19</title><g id="Layer_2" data-name="Layer 2"><g id="Layer_1-2" data-name="Layer 1"><path class="cls-1" d="M40,11.46l1.69-1.69,1.71,1.71,2.12-2.12L40.64,4.52,38.52,6.64l1.71,1.71L38.54,10a22.92,22.92,0,0,0-14-6V0h-3V4.05A23,23,0,1,0,40,11.46ZM23,48A21,21,0,1,1,44,27,21,21,0,0,1,23,48Z"/><path class="cls-1" d="M24,24.18V11H22V24.18a3,3,0,0,0,0,5.63V34h2V29.82a3,3,0,0,0,0-5.63Z"/></g></g></svg>