<svg xmlns="http://www.w3.org/2000/svg" viewBox="0 0 38 50"><defs><style>.cls-1{fill:#415560;}</style></defs><title>Asset 23</title><g id="Layer_2" data-name="Layer 2"><g id="Layer_1-2" data-name="Layer 1"><path class="cls-1" d="M38,6H28V4a4,4,0,0,0-4-4H14a4,4,0,0,0-4,4V6H0V8H2.06l2,38a4,4,0,0,0,4,4h22a4,4,0,0,0,4-4L36,8h2ZM12,4a2,2,0,0,1,2-2H24a2,2,0,0,1,2,2V6H12ZM32.07,45.9V46a2,2,0,0,1-2,2h-22a2,2,0,0,1-2-2v-.11L4.06,8H34Z"/><rect class="cls-1" x="18" y="12" width="2" height="32"/><rect class="cls-1" x="11.02" y="12.03" width="2" height="32" transform="translate(-1.77 0.83) rotate(-3.67)"/><rect class="cls-1" x="9.98" y="27" width="32.06" height="2" transform="matrix(0.06, -1, 1, 0.06, -3.56, 52.21)"/></g></g></svg>