<svg xmlns="http://www.w3.org/2000/svg" viewBox="0 0 36 48"><defs><style>.cls-1{fill:#415560;}</style></defs><title>Asset 31</title><g id="Layer_2" data-name="Layer 2"><g id="Layer_1-2" data-name="Layer 1"><path class="cls-1" d="M4,13H32V5H4ZM6,7H30v4H6Z"/><path class="cls-1" d="M32,0H4A4,4,0,0,0,0,4V44a4,4,0,0,0,4,4H32a4,4,0,0,0,4-4V4A4,4,0,0,0,32,0Zm2,44a2,2,0,0,1-2,2H4a2,2,0,0,1-2-2V4A2,2,0,0,1,4,2H32a2,2,0,0,1,2,2Z"/><polygon class="cls-1" points="6 22 6 18 6 16 4 16 4 24 12 24 12 22 10 22 6 22"/><polygon class="cls-1" points="6 32 6 28 6 26 4 26 4 34 12 34 12 32 10 32 6 32"/><polygon class="cls-1" points="6 42 6 38 6 36 4 36 4 44 12 44 12 42 10 42 6 42"/><polygon class="cls-1" points="16 22 16 18 16 16 14 16 14 24 22 24 22 22 20 22 16 22"/><polygon class="cls-1" points="26 22 26 18 26 16 24 16 24 24 32 24 32 22 30 22 26 22"/><polygon class="cls-1" points="16 32 16 28 16 26 14 26 14 34 22 34 22 32 20 32 16 32"/><polygon class="cls-1" points="16 42 16 38 16 36 14 36 14 44 22 44 22 42 20 42 16 42"/><polygon class="cls-1" points="26 42 26 38 26 26 24 26 24 44 32 44 32 42 30 42 26 42"/></g></g></svg>