<svg xmlns="http://www.w3.org/2000/svg" viewBox="0 0 48 48"><defs><style>.cls-1{fill:#415560;}</style></defs><title>Asset 9</title><g id="Layer_2" data-name="Layer 2"><g id="Layer_1-2" data-name="Layer 1"><path class="cls-1" d="M24,0A24,24,0,1,0,48,24,24,24,0,0,0,24,0Zm0,2A22,22,0,0,1,40.91,38c-2.19-.92-7.37-2.71-10.58-3.66-.27-.09-.32-.1-.32-1.24a6.57,6.57,0,0,1,.76-2.69,13.77,13.77,0,0,0,1.07-3.65A8.21,8.21,0,0,0,33.43,23a5,5,0,0,0,0-3.19c0-.07-.05-.13-.07-.2a20.85,20.85,0,0,1,.36-4.48,8.22,8.22,0,0,0-1.73-5.93A8.84,8.84,0,0,0,25.18,6h-2a8.81,8.81,0,0,0-6.7,3.23,8.22,8.22,0,0,0-1.73,5.92,20.88,20.88,0,0,1,.36,4.48,1.65,1.65,0,0,1-.07.21A5,5,0,0,0,15,23a8.17,8.17,0,0,0,1.57,3.8,13.63,13.63,0,0,0,1.07,3.65A6.49,6.49,0,0,1,18,33.19c0,1.14,0,1.15-.3,1.23-3.31,1-8.59,2.88-10.56,3.75A22,22,0,0,1,24,2ZM8.64,39.73c2.25-.92,6.74-2.52,9.69-3.39C20,35.8,20,34.35,20,33.19a8.64,8.64,0,0,0-.63-3.58,11.31,11.31,0,0,1-.93-3.33,1,1,0,0,0-.34-.67,6,6,0,0,1-1.23-3c-.29-1.45-.17-1.77,0-2.07a3.87,3.87,0,0,0,.14-.41,19.6,19.6,0,0,0-.32-5.36A6.26,6.26,0,0,1,18,10.45,6.82,6.82,0,0,1,23.22,8h1.9a6.87,6.87,0,0,1,5.25,2.47,6.26,6.26,0,0,1,1.33,4.34,19.66,19.66,0,0,0-.32,5.36c0,.15.09.28.14.41.12.31.24.62,0,2.07a6,6,0,0,1-1.23,3,1,1,0,0,0-.34.67A11.26,11.26,0,0,1,29,29.61a8.49,8.49,0,0,0-1,3.54c0,1.16,0,2.6,1.73,3.15,2.82.83,7.33,2.38,9.72,3.32a22,22,0,0,1-30.83.11Z"/></g></g></svg>