<svg xmlns="http://www.w3.org/2000/svg" viewBox="0 0 60 36"><defs><style>.cls-1{fill:#415560;}</style></defs><title>Asset 13</title><g id="Layer_2" data-name="Layer 2"><g id="Layer_1-2" data-name="Layer 1"><path class="cls-1" d="M30,0C19,0,10.48,6.86,0,18c9,9.52,16.61,18,30,18S53.23,25.25,60,18.19C53.07,9.93,43.23,0,30,0Zm0,34C18.12,34,10.94,26.63,2.76,18,12.5,7.84,20.24,2,30,2c11.56,0,20.59,8.33,27.31,16.11C50.7,25,41.75,34,30,34Z"/><path class="cls-1" d="M30,6A12,12,0,1,0,42,18,12,12,0,0,0,30,6Zm0,22A10,10,0,1,1,40,18,10,10,0,0,1,30,28Z"/><path class="cls-1" d="M30,11a7,7,0,1,0,7,7A7,7,0,0,0,30,11Zm0,12a5,5,0,1,1,5-5A5,5,0,0,1,30,23Z"/></g></g></svg>